<svg width="28" height="27" viewBox="0 0 28 27" fill="none" xmlns="http://www.w3.org/2000/svg">
<path d="M13.9176 0C6.51687 0 0.517578 5.99929 0.517578 13.4C0.517578 20.8007 6.51687 26.8 13.9176 26.8C21.3183 26.8 27.3176 20.8007 27.3176 13.4C27.3176 5.99929 21.3183 0 13.9176 0ZM10.6374 18.954H7.92387V10.2217H10.6374V18.954ZM9.26387 9.14969C8.40683 9.14969 7.85268 8.5425 7.85268 7.79154C7.85268 7.02523 8.42358 6.43619 9.29877 6.43619C10.174 6.43619 10.71 7.02523 10.7267 7.79154C10.7267 8.5425 10.174 9.14969 9.26387 9.14969ZM20.5478 18.954H17.8343V14.1147C17.8343 12.9882 17.4407 12.2233 16.4594 12.2233C15.7098 12.2233 15.2646 12.7412 15.0677 13.2395C14.9952 13.4167 14.977 13.668 14.977 13.9179V18.9526H12.2621V13.0064C12.2621 11.9162 12.2272 11.0047 12.1909 10.2203H14.5485L14.6727 11.4333H14.7272C15.0845 10.8638 15.9597 10.0235 17.4239 10.0235C19.2092 10.0235 20.5478 11.2197 20.5478 13.7908V18.954Z" fill="#5CA7FF"/>
</svg>
