<svg width="28" height="27" viewBox="0 0 28 27" fill="none" xmlns="http://www.w3.org/2000/svg">
<path d="M27.4715 7.91015C27.4565 6.78487 27.2455 5.67078 26.8479 4.61772C26.5032 3.72946 25.9766 2.92277 25.3019 2.24918C24.6272 1.57559 23.8192 1.04991 22.9294 0.705733C21.8882 0.31551 20.7881 0.10451 19.6762 0.0817165C18.2445 0.0178291 17.7906 0 14.1563 0C10.5221 0 10.0563 9.96275e-08 8.635 0.0817165C7.52353 0.104677 6.42401 0.315675 5.38322 0.705733C4.49335 1.04967 3.68519 1.57526 3.01044 2.24888C2.3357 2.92251 1.80923 3.72933 1.46472 4.61772C1.07307 5.65646 0.862172 6.7544 0.841153 7.86409C0.777159 9.29487 0.757812 9.74802 0.757812 13.3762C0.757812 17.0044 0.757812 17.468 0.841153 18.8884C0.863477 19.9997 1.07332 21.0962 1.46472 22.1377C1.80981 23.0258 2.33667 23.8323 3.01164 24.5057C3.68661 25.179 4.49485 25.7044 5.38471 26.0482C6.42265 26.4541 7.52236 26.6802 8.63649 26.7168C10.0697 26.7807 10.5236 26.8 14.1578 26.8C17.7921 26.8 18.2579 26.8 19.6791 26.7168C20.7911 26.6949 21.8912 26.4844 22.9324 26.0943C23.8219 25.7497 24.6297 25.2239 25.3044 24.5503C25.9791 23.8768 26.5058 23.0703 26.8509 22.1823C27.2423 21.1423 27.4522 20.0458 27.4745 18.9329C27.5385 17.5037 27.5578 17.0505 27.5578 13.4208C27.5548 9.79259 27.5548 9.33201 27.4715 7.91015ZM14.1474 20.2374C10.3465 20.2374 7.26732 17.1634 7.26732 13.3688C7.26732 9.57419 10.3465 6.50017 14.1474 6.50017C15.9721 6.50017 17.7221 7.22383 19.0123 8.51194C20.3026 9.80006 21.0275 11.5471 21.0275 13.3688C21.0275 15.1905 20.3026 16.9375 19.0123 18.2257C17.7221 19.5138 15.9721 20.2374 14.1474 20.2374ZM21.3013 7.84774C21.0906 7.84794 20.8819 7.80665 20.6871 7.72623C20.4924 7.6458 20.3155 7.52784 20.1665 7.37907C20.0174 7.23031 19.8993 7.05366 19.8187 6.85926C19.7382 6.66485 19.6968 6.45649 19.697 6.2461C19.697 6.03587 19.7385 5.8277 19.8191 5.63347C19.8996 5.43924 20.0178 5.26275 20.1667 5.1141C20.3156 4.96544 20.4924 4.84752 20.6869 4.76707C20.8815 4.68661 21.09 4.64521 21.3006 4.64521C21.5111 4.64521 21.7197 4.68661 21.9142 4.76707C22.1088 4.84752 22.2856 4.96544 22.4345 5.1141C22.5834 5.26275 22.7015 5.43924 22.7821 5.63347C22.8626 5.8277 22.9041 6.03587 22.9041 6.2461C22.9041 7.13161 22.1868 7.84774 21.3013 7.84774Z" fill="#5CA7FF"/>
<path d="M14.721 18.1539C17.036 18.1539 18.9127 16.2772 18.9127 13.9622C18.9127 11.6472 17.036 9.77051 14.721 9.77051C12.406 9.77051 10.5293 11.6472 10.5293 13.9622C10.5293 16.2772 12.406 18.1539 14.721 18.1539Z" fill="#5CA7FF"/>
</svg>
