<svg width="28" height="27" viewBox="0 0 28 27" fill="none" xmlns="http://www.w3.org/2000/svg">
<path d="M13.6754 0C6.27468 0 0.275391 5.99929 0.275391 13.4C0.275391 20.8007 6.27468 26.8 13.6754 26.8C21.0761 26.8 27.0754 20.8007 27.0754 13.4C27.0754 5.99929 21.0761 0 13.6754 0ZM19.1261 10.9768C19.1317 11.0913 19.1331 11.2058 19.1331 11.3174C19.1331 14.807 16.4796 18.8284 11.6249 18.8284C10.1904 18.8308 8.78574 18.4188 7.57979 17.6419C7.78497 17.6671 7.99575 17.6768 8.20931 17.6768C9.44602 17.6768 10.5836 17.2567 11.4867 16.5476C10.9364 16.5368 10.4031 16.3546 9.96123 16.0263C9.51937 15.698 9.19093 15.2401 9.02168 14.7163C9.41692 14.7914 9.82408 14.7757 10.2123 14.6702C9.61498 14.5494 9.07779 14.2257 8.69186 13.7541C8.30592 13.2824 8.095 12.6918 8.09485 12.0823V12.0502C8.45079 12.247 8.85837 12.3671 9.29108 12.381C8.73107 12.0083 8.33463 11.4356 8.18285 10.7802C8.03106 10.1248 8.1354 9.43618 8.47452 8.85517C9.13747 9.67033 9.96423 10.3372 10.9013 10.8126C11.8383 11.2879 12.8647 11.5612 13.9141 11.6147C13.7807 11.0485 13.8381 10.454 14.0774 9.92368C14.3167 9.3934 14.7245 8.95705 15.2374 8.68245C15.7503 8.40786 16.3396 8.3104 16.9136 8.40525C17.4876 8.50009 18.0142 8.78192 18.4115 9.20692C19.0021 9.09005 19.5686 8.87339 20.0865 8.56623C19.8896 9.17779 19.4774 9.6971 18.9265 10.0277C19.4497 9.96465 19.9606 9.82398 20.4424 9.61031C20.0885 10.1406 19.6428 10.6034 19.1261 10.9768Z" fill="#5CA7FF"/>
</svg>
