<svg width="45" height="36" viewBox="0 0 45 36" fill="none" xmlns="http://www.w3.org/2000/svg">
<path d="M43.3929 0H1.60714C0.718192 0 0 0.73125 0 1.63636V34.3636C0 35.2687 0.718192 36 1.60714 36H43.3929C44.2818 36 45 35.2687 45 34.3636V1.63636C45 0.73125 44.2818 0 43.3929 0ZM39.3348 5.56875L23.4894 18.1227C23.0977 18.4347 22.5502 18.4347 22.1585 18.1227L6.30804 5.56875C6.24828 5.5218 6.20446 5.45699 6.1827 5.38341C6.16095 5.30982 6.16235 5.23115 6.18671 5.15841C6.21108 5.08568 6.25719 5.02254 6.31857 4.97782C6.37996 4.93311 6.45354 4.90908 6.52902 4.90909H39.1138C39.1893 4.90908 39.2629 4.93311 39.3243 4.97782C39.3857 5.02254 39.4318 5.08568 39.4561 5.15841C39.4805 5.23115 39.4819 5.30982 39.4602 5.38341C39.4384 5.45699 39.3946 5.5218 39.3348 5.56875Z" fill="white"/>
</svg>
