<svg width="27" height="36" viewBox="0 0 27 36" fill="none" xmlns="http://www.w3.org/2000/svg">
<path d="M7.16484 0.19162C8.13254 -0.105305 9.17097 -0.055976 10.1073 0.331397C11.0436 0.71877 11.8213 1.42082 12.3109 2.32067L12.4746 2.65601L13.9385 5.96661C14.3829 6.97146 14.5271 8.08706 14.3533 9.17467C14.1795 10.2623 13.6954 11.2739 12.9611 12.0837L12.667 12.3808L10.3604 14.5706C9.94465 14.9712 10.2565 16.5218 11.7603 19.173C13.1137 21.5586 14.215 22.6727 14.7568 22.7334H14.8519L14.9691 22.7109L19.5026 21.2998C20.1119 21.1096 20.7621 21.1021 21.3755 21.2781C21.9888 21.4541 22.5394 21.8062 22.9613 22.2923L23.1626 22.5511L26.1635 26.7822C26.7516 27.6115 27.0447 28.62 26.9945 29.6414C26.9442 30.6629 26.5536 31.6365 25.8871 32.4019L25.6173 32.6855L24.4187 33.8423C23.3423 34.8796 21.9959 35.5806 20.5395 35.8619C19.0831 36.1432 17.578 35.9929 16.2031 35.4289C11.9239 33.6735 8.03616 29.663 4.50446 23.4379C0.96612 17.197 -0.504501 11.7573 0.152303 7.09865C0.351055 5.69039 0.920874 4.3632 1.80125 3.25803C2.68162 2.15286 3.83967 1.31097 5.15242 0.821783L5.57923 0.677746L7.16484 0.19162Z" fill="white"/>
</svg>
